<svg xmlns="http://www.w3.org/2000/svg" viewBox="0 0 264 264"><!-- KAZENDRA — icône carrée, DÉRIVÉE de icone-kazendra.svg (mêmes dégradés, mêmes points). Fond élargi de 220.5 à 262.8 et K recentré de 21.15 (l'icône d'application est carrée). Contours repris du THÈME du site : rayon 20.67 (soit 14px sur une carte de 178 px) et liseré #dce4ec. Généré par android-build/promos-icones.py — ne pas éditer à la main. -->
<defs><linearGradient id="gpastille" x1="5.24" y1="48.3" x2="268.52" y2="96.9" gradientUnits="userSpaceOnUse"><stop offset="0.145" stop-color="#EFF7F9"/><stop offset="0.496" stop-color="#F5FBFB"/><stop offset="0.822" stop-color="#E8F2F8"/></linearGradient><linearGradient id="ghampe" x1="103.2" y1="108.0" x2="164.6" y2="238.8" gradientUnits="userSpaceOnUse"><stop offset="0.174" stop-color="#327989"/><stop offset="0.498" stop-color="#076C92"/><stop offset="0.805" stop-color="#0F83A0"/></linearGradient><linearGradient id="gjambe" x1="67.7" y1="42.6" x2="64.1" y2="213.5" gradientUnits="userSpaceOnUse"><stop offset="0.168" stop-color="#0784A4"/><stop offset="0.467" stop-color="#196285"/><stop offset="0.808" stop-color="#21526F"/></linearGradient><linearGradient id="gorange" x1="160.6" y1="35.6" x2="44.4" y2="217.2" gradientUnits="userSpaceOnUse"><stop offset="0.174" stop-color="#EE9A3D"/><stop offset="0.490" stop-color="#DF8738"/><stop offset="0.838" stop-color="#DF792E"/></linearGradient></defs><rect x="0.6" y="0.6" width="262.8" height="262.8" rx="20.7" ry="20.7" fill="url(#gpastille)"/><rect x="1.34" y="1.34" width="261.32" height="261.32" rx="19.93" ry="19.93" fill="none" stroke="#dce4ec" stroke-width="1.48"/><g transform="translate(21.15 0)"><path d="M64.4 189.1 L63.1 189.0 L63.2 187.5 L114.2 108.0 L123.8 101.7 L129.4 96.2 L147.5 87.1 L156.9 85.1 L156.9 86.5 L123.7 127.5 L121.1 129.2 L120.2 132.0 L108.8 142.2 L108.4 143.8 L105.2 145.5 L64.4 189.1 Z" fill="url(#ghampe)"/><path d="M180.8 230.2 L168.1 229.9 L162.6 226.3 L141.4 224.8 L138.6 222.7 L135.0 224.1 L135.1 219.9 L129.3 214.1 L123.7 202.8 L119.9 199.8 L108.3 178.2 L100.3 167.9 L97.8 162.1 L98.6 159.6 L115.8 139.2 L122.6 133.8 L125.0 133.8 L130.7 139.6 L137.9 152.1 L142.6 156.1 L153.8 175.5 L157.7 177.4 L158.8 180.5 L167.6 190.6 L170.9 198.5 L174.8 201.9 L178.2 208.4 L188.3 218.2 L188.9 224.5 L185.9 225.1 L185.0 229.3 L180.8 230.2 Z" fill="url(#ghampe)"/><path d="M46.8 213.2 L45.4 213.1 L46.3 190.2 L48.2 190.2 L52.6 185.1 L67.9 157.2 L80.7 140.1 L106.1 113.6 L110.5 112.4 L46.8 213.2 Z" fill="url(#gjambe)"/><path d="M47.9 143.6 L46.1 142.2 L46.4 43.9 L48.6 42.2 L82.1 43.4 L85.8 45.2 L86.8 47.4 L86.8 96.6 L81.7 105.6 L47.9 143.6 Z" fill="url(#gjambe)"/><path d="M48.2 190.2 L46.2 190.1 L46.1 187.2 L47.1 162.0 L53.4 146.4 L66.9 129.6 L78.4 118.5 L129.2 55.2 L134.5 50.1 L140.4 46.8 L170.2 47.6 L183.9 50.4 L183.9 53.4 L177.9 63.8 L158.8 83.9 L147.5 87.1 L128.1 96.9 L123.8 101.7 L116.0 106.3 L109.4 112.4 L106.1 113.6 L89.1 130.4 L69.2 155.2 L58.1 173.9 L55.4 180.6 L48.2 190.2 Z" fill="url(#gorange)"/><path d="M75.6 223.2 L51.2 221.7 L48.7 218.8 L48.7 216.1 L51.2 209.9 L68.4 189.2 L80.1 178.2 L84.4 176.7 L86.8 179.4 L87.9 183.9 L89.7 216.4 L87.4 221.7 L75.6 223.2 Z" fill="url(#gorange)"/></g></svg>
